<svg width="80" height="80" viewBox="0 0 80 80" fill="none" xmlns="http://www.w3.org/2000/svg">
<path d="M28.096 34.5116V44.5013C28.096 44.7994 28.0828 45.0982 28.1211 45.3938C28.2131 46.103 28.6176 47.4072 30.3505 47.3778C31.1765 47.3638 31.6727 47.0913 31.9671 46.7334C32.7602 45.7693 32.3345 44.3192 32.3345 43.0708V34.5116C32.3345 34.3129 32.4956 34.1518 32.6944 34.1518H34.4589C35.6763 34.1518 36.6632 33.1648 36.6632 31.9474C36.6632 30.73 35.6763 29.7431 34.4589 29.7431H32.6944C32.4956 29.7431 32.3345 29.5819 32.3345 29.3832V27.7078C32.3345 27.0344 32.8643 26.48 33.5371 26.4495L34.1942 26.4197C35.3737 26.3662 36.3025 25.3944 36.3025 24.2137C36.3025 22.9941 35.3138 22.0054 34.0942 22.0054H32.5946C30.1101 22.0054 28.096 24.0195 28.096 26.504V29.3832C28.096 29.5819 27.9348 29.7431 27.7361 29.7431H26.6028C25.3854 29.7431 24.3985 30.73 24.3985 31.9474C24.3985 33.1648 25.3854 34.1518 26.6028 34.1518H27.7361C27.9348 34.1518 28.096 34.3129 28.096 34.5116Z" fill="url(#paint0_linear_143_5)"/>
<path d="M44.7944 33.6119H39.8376C39.1648 33.6119 38.4561 33.6247 37.8854 33.2682C37.4577 33.0011 37.042 32.5334 37.024 31.7225C37.0135 31.2527 37.1352 30.8802 37.3198 30.5865C37.9801 29.5361 39.4529 29.5631 40.6936 29.5631H50.3394C51.6644 29.5631 52.4287 31.0676 51.6474 32.1377L43.8161 42.863C43.7293 42.9819 43.8142 43.1491 43.9614 43.1491H50.6012C51.769 43.1491 52.7156 44.0957 52.7156 45.2634C52.7156 46.4312 51.769 47.3778 50.6012 47.3778H38.9498C37.4934 47.3778 36.6403 45.738 37.4762 44.5455L44.9418 33.8951C45.0254 33.7759 44.9401 33.6119 44.7944 33.6119Z" fill="url(#paint1_linear_143_5)"/>
<path fill-rule="evenodd" clip-rule="evenodd" d="M38.1963 8.05955C21.6611 8.28542 7.79015 21.8126 8.61671 38.2905C9.40395 53.9844 22.448 65.4073 38.1963 65.6423C54.2047 65.8811 67.9629 54.2476 68.6778 38.2905C69.5157 19.5861 56.6024 7.80812 38.1963 8.05955ZM17.4545 38.2905C15.8139 26.0972 25.8679 14.7976 38.1963 14.5376C50.7589 14.2727 61.5105 25.8655 59.84 38.2905C58.3712 49.2148 49.2416 56.6969 38.1963 56.465C27.418 56.2388 18.8889 48.9506 17.4545 38.2905Z" fill="url(#paint2_linear_143_5)"/>
<path fill-rule="evenodd" clip-rule="evenodd" d="M40.1803 74.9995C21.0036 75.0981 5.45311 59.9372 5.00943 40.8097C4.55539 21.2358 20.556 4.89957 40.1803 5.00046C59.7063 5.10085 75.4423 21.3339 74.9905 40.8097C74.5492 59.8368 59.2564 74.9014 40.1803 74.9995ZM7.89525 40.8097C8.33852 58.3468 22.5973 72.2189 40.1803 72.1204C57.6626 72.0224 71.664 58.2463 72.1047 40.8097C72.5568 22.9243 58.1127 7.98008 40.1803 7.8796C22.1497 7.77858 7.44069 22.8263 7.89525 40.8097Z" fill="url(#paint3_linear_143_5)"/>
<defs>
<linearGradient id="paint0_linear_143_5" x1="46.3892" y1="22.7229" x2="30.8546" y2="49.1476" gradientUnits="userSpaceOnUse">
<stop offset="0.193269" stop-color="#C972E0"/>
<stop offset="0.404807" stop-color="#E29B95" stop-opacity="0.7"/>
<stop offset="0.481731" stop-color="#E29B95"/>
<stop offset="0.698077" stop-color="#E29B95" stop-opacity="0.8"/>
<stop offset="0.788462" stop-color="#F9C24A" stop-opacity="0.8"/>
<stop offset="0.981731" stop-color="#F9C24A"/>
</linearGradient>
<linearGradient id="paint1_linear_143_5" x1="46.3892" y1="22.7229" x2="30.8546" y2="49.1476" gradientUnits="userSpaceOnUse">
<stop offset="0.193269" stop-color="#C972E0"/>
<stop offset="0.404807" stop-color="#E29B95" stop-opacity="0.7"/>
<stop offset="0.481731" stop-color="#E29B95"/>
<stop offset="0.698077" stop-color="#E29B95" stop-opacity="0.8"/>
<stop offset="0.788462" stop-color="#F9C24A" stop-opacity="0.8"/>
<stop offset="0.981731" stop-color="#F9C24A"/>
</linearGradient>
<linearGradient id="paint2_linear_143_5" x1="53.9803" y1="9.6841" x2="17.187" y2="66.6091" gradientUnits="userSpaceOnUse">
<stop offset="0.193269" stop-color="#C972E0"/>
<stop offset="0.404807" stop-color="#E29B95" stop-opacity="0.7"/>
<stop offset="0.481731" stop-color="#E29B95"/>
<stop offset="0.698077" stop-color="#E29B95" stop-opacity="0.8"/>
<stop offset="0.788462" stop-color="#F9C24A" stop-opacity="0.8"/>
<stop offset="0.981731" stop-color="#F9C24A"/>
</linearGradient>
<linearGradient id="paint3_linear_143_5" x1="57.8465" y1="6.97941" x2="12.3595" y2="74.3771" gradientUnits="userSpaceOnUse">
<stop offset="0.193269" stop-color="#C972E0"/>
<stop offset="0.404807" stop-color="#E29B95" stop-opacity="0.7"/>
<stop offset="0.481731" stop-color="#E29B95"/>
<stop offset="0.698077" stop-color="#E29B95" stop-opacity="0.8"/>
<stop offset="0.788462" stop-color="#F9C24A" stop-opacity="0.8"/>
<stop offset="0.981731" stop-color="#F9C24A"/>
</linearGradient>
</defs>
</svg>
